<?xml version="1.0" standalone="no"?><!DOCTYPE svg PUBLIC "-//W3C//DTD SVG 1.1//EN" "http://www.w3.org/Graphics/SVG/1.1/DTD/svg11.dtd"><svg t="1681440741602" class="icon" viewBox="0 0 1251 1024" version="1.1" xmlns="http://www.w3.org/2000/svg" p-id="6010" xmlns:xlink="http://www.w3.org/1999/xlink" width="244.3359375" height="200"><path d="M817.483378 259.1232l1.8432 1.728 179.2 179.2a38.4 38.4 0 0 1 1.728 52.4544l-1.728 1.8432-179.2 179.2a38.4 38.4 0 0 1-56.0256-52.4544l1.728-1.8432 106.4576-106.4832-443.6224 5.632a38.4 38.4 0 0 1-3.2256-76.6976l2.2528-0.1024 458.752-5.8112-120.6144-120.64a38.4 38.4 0 0 1-1.728-52.4544l1.728-1.8432a38.4 38.4 0 0 1 52.4544-1.728z" fill="#FF6F26" p-id="6011"></path><path d="M702.577778 883.2a38.4 38.4 0 0 1-36.1472 38.336L664.177778 921.6l-460.8 0a89.6 89.6 0 0 1-89.5488-86.528L113.777778 832 113.777778 89.6a89.6 89.6 0 0 1 86.528-89.5488L203.377778 0 664.177778 0a38.4 38.4 0 0 1 2.2528 76.736L664.177778 76.8l-460.8 0a12.8 12.8 0 0 0-12.7104 11.3024L190.577778 89.6l0 742.4a12.8 12.8 0 0 0 11.3024 12.7104L203.377778 844.8 664.177778 844.8a38.4 38.4 0 0 1 38.4 38.4z" fill="#303133" p-id="6012"></path></svg>