<?xml version="1.0" standalone="no"?><!DOCTYPE svg PUBLIC "-//W3C//DTD SVG 1.1//EN" "http://www.w3.org/Graphics/SVG/1.1/DTD/svg11.dtd"><svg t="1681440920959" class="icon" viewBox="0 0 1024 1024" version="1.1" xmlns="http://www.w3.org/2000/svg" p-id="7009" xmlns:xlink="http://www.w3.org/1999/xlink" width="200" height="200"><path d="M297.612549 208.865882h671.104837v753.024837H297.612549z" fill="#B3F995" p-id="7010"></path><path d="M443.499085 755.551373c22.103007 22.119739 57.959739 22.119739 80.062745 0l211.275294-211.275295c17.869804-17.869804 17.869804-46.849673 0-64.719477L523.56183 268.298039c-22.119739-22.103007-57.959739-22.103007-80.079477 0-22.086275 22.086275-22.119739 57.859346-0.08366 79.995817l106.482614 106.900915H58.026667c-31.339085 0-56.738301 25.399216-56.738301 56.738301 0 31.339085 25.399216 56.738301 56.738301 56.738301h491.888104l-106.499346 106.900915c-22.036078 22.103007-22.002614 57.89281 0.08366 79.979085zM909.034248 1.32183H114.764967C51.785621 1.32183 1.288366 52.387974 1.288366 114.781699v170.19817c0 31.339085 25.399216 56.738301 56.738301 56.738301 31.339085 0 56.738301-25.399216 56.7383-56.738301V114.781699h794.269281v794.269281H114.764967V738.85281c0-31.339085-25.399216-56.738301-56.7383-56.7383-31.339085 0-56.738301 25.399216-56.738301 56.7383V909.05098c0 62.410458 50.497255 113.459869 113.459869 113.45987h794.269281c62.410458 0 113.459869-51.066144 113.45987-113.45987V114.781699C1022.494118 52.387974 971.427974 1.32183 909.034248 1.32183z m0 0" fill="#00B38A" p-id="7011"></path></svg>