<?xml version="1.0" standalone="no"?><!DOCTYPE svg PUBLIC "-//W3C//DTD SVG 1.1//EN" "http://www.w3.org/Graphics/SVG/1.1/DTD/svg11.dtd"><svg t="1681441227696" class="icon" viewBox="0 0 1024 1024" version="1.1" xmlns="http://www.w3.org/2000/svg" p-id="11535" xmlns:xlink="http://www.w3.org/1999/xlink" width="200" height="200"><path d="M512 85.333333c-140.8 0-256 115.2-256 256 0 81.066667 38.4 153.6 98.133333 200.533334C196.266667 605.866667 85.333333 759.466667 85.333333 938.666667h85.333334c0-187.733333 153.6-341.333333 341.333333-341.333334 140.8 0 256-115.2 256-256S652.8 85.333333 512 85.333333z m0 426.666667c-93.866667 0-170.666667-76.8-170.666667-170.666667s76.8-170.666667 170.666667-170.666666 170.666667 76.8 170.666667 170.666666-76.8 170.666667-170.666667 170.666667zM917.333333 597.333333h-128c-12.8 0-21.333333-8.533333-21.333333-21.333333v-42.666667c0-12.8 8.533333-21.333333 21.333333-21.333333h128c12.8 0 21.333333 8.533333 21.333334 21.333333v42.666667c0 12.8-8.533333 21.333333-21.333334 21.333333zM917.333333 938.666667H618.666667c-12.8 0-21.333333-8.533333-21.333334-21.333334v-42.666666c0-12.8 8.533333-21.333333 21.333334-21.333334h298.666666c12.8 0 21.333333 8.533333 21.333334 21.333334v42.666666c0 12.8-8.533333 21.333333-21.333334 21.333334zM917.333333 768H618.666667c-12.8 0-21.333333-8.533333-21.333334-21.333333v-42.666667c0-12.8 8.533333-21.333333 21.333334-21.333333h298.666666c12.8 0 21.333333 8.533333 21.333334 21.333333v42.666667c0 12.8-8.533333 21.333333-21.333334 21.333333z" fill="#297AFF" p-id="11536"></path></svg>